<?xml version="1.0" standalone="no"?>
<!DOCTYPE svg PUBLIC "-//W3C//DTD SVG 20010904//EN"
 "http://www.w3.org/TR/2001/REC-SVG-20010904/DTD/svg10.dtd">
<svg version="1.0" xmlns="http://www.w3.org/2000/svg"
 width="300.000000pt" height="74.000000pt" viewBox="0 0 300.000000 74.000000"
 preserveAspectRatio="xMidYMid meet">
<metadata>
Created by potrace 1.10, written by Peter Selinger 2001-2011
</metadata>
<g transform="translate(0.000000,74.000000) scale(0.050000,-0.050000)"
fill="#000000" stroke="none">
<path d="M0 1107 l0 -372 75 10 c76 10 299 111 875 397 344 170 358 174 426
127 80 -56 2 -145 -110 -126 -33 6 -673 -323 -658 -337 3 -3 148 3 323 12 265
15 324 14 351 -10 58 -52 78 -34 65 59 -10 76 -6 92 34 119 64 45 83 24 68
-78 -16 -107 -14 -108 101 -8 94 81 242 117 226 55 -20 -80 -529 -670 -605
-702 -46 -19 -106 -68 -140 -113 -32 -44 -72 -80 -87 -80 -33 0 -33 0 116 180
50 61 131 164 181 229 49 66 124 155 167 198 43 44 68 73 56 65 -13 -8 -41 -4
-64 8 -31 17 -40 15 -40 -7 0 -60 -64 -70 -606 -92 l-555 -22 -100 48 -99 47
0 -357 0 -357 1550 0 c1118 0 1550 6 1550 22 0 12 60 142 134 289 133 263 134
267 97 308 -38 41 -37 42 28 66 51 20 80 53 132 156 l66 132 366 21 c420 24
383 31 366 -61 -11 -61 -25 -75 -94 -98 -63 -21 -83 -38 -86 -76 -3 -27 -12
-70 -20 -97 -37 -117 180 73 284 248 109 183 162 249 137 169 -9 -27 -15 -76
-14 -109 1 -36 -30 -115 -76 -196 -43 -74 -97 -176 -119 -227 -42 -95 -142
-93 -125 3 7 38 -8 32 -108 -42 -123 -90 -178 -4 -99 154 27 54 43 98 35 98
-8 0 -119 -33 -247 -74 l-232 -74 -90 -182 c-66 -133 -110 -195 -163 -231 -40
-27 -81 -77 -93 -113 -12 -35 -32 -68 -45 -73 -13 -5 626 -11 1421 -11 l1445
-2 0 95 -1 95 -303 160 c-166 88 -383 207 -482 265 -214 126 -183 125 -243 6
-62 -121 -85 -136 -132 -88 -64 64 155 487 252 487 75 0 86 -26 38 -89 -51
-68 -36 -99 26 -55 41 29 495 268 610 320 8 4 15 -5 15 -21 0 -65 -129 -154
-476 -328 l-106 -53 74 -42 c41 -23 75 -51 75 -62 3 -35 96 -100 343 -240 132
-75 256 -150 275 -166 33 -29 35 1 35 583 l0 613 -1835 -1 -1835 -1 -46 -71
c-27 -43 -40 -87 -33 -110 9 -27 -22 -77 -113 -182 l-125 -145 105 -6 c72 -4
108 -16 116 -38 10 -26 17 -24 45 13 35 46 932 74 1056 33 141 -46 101 -113
-105 -173 -236 -69 -235 -67 -90 -116 186 -62 194 -69 161 -132 -40 -74 -203
-42 -463 90 -96 49 -92 52 -158 -106 -61 -141 -82 -156 -127 -87 -32 49 9 167
148 417 22 40 -40 46 -236 22 -149 -18 -130 -41 25 -31 127 8 159 -7 105 -51
-26 -21 -136 -42 -256 -49 -52 -3 -120 -78 -70 -76 1 0 68 13 151 29 166 31
169 31 151 -27 -9 -28 -37 -45 -87 -53 -41 -7 -134 -28 -208 -48 -190 -50
-248 -7 -161 119 30 43 66 79 80 79 28 1 35 41 7 41 -10 0 -131 -85 -268 -189
l-249 -188 -72 49 c-86 59 -89 74 -23 140 28 27 50 56 50 64 0 8 20 37 45 64
25 28 97 120 161 204 64 85 179 216 255 292 77 76 139 148 139 160 0 12 16 31
35 42 24 14 -326 21 -1120 21 l-1155 1 0 -373z m4639 -224 c12 -40 21 -94 21
-120 0 -71 34 -44 96 77 49 94 66 111 120 116 79 8 80 18 -19 -169 -170 -320
-256 -360 -257 -122 0 80 -27 68 -80 -35 -38 -75 -56 -90 -103 -90 -74 0 -72
20 19 178 41 73 87 161 102 196 33 80 74 67 101 -31z m-911 -548 c15 -25 11
-43 -18 -75 l-39 -43 150 4 c95 3 161 15 182 33 27 23 36 24 48 2 9 -14 8 -19
-1 -11 -9 8 -31 3 -48 -12 -32 -27 -382 -65 -382 -41 0 6 18 35 40 63 52 66
51 91 -5 73 -40 -12 -42 -10 -17 20 32 38 60 34 90 -13z m468 21 c35 -35 30
-155 -6 -169 -71 -27 -125 110 -66 169 30 30 42 30 72 0z m504 10 c0 -38 -68
-186 -85 -186 -11 0 -14 18 -7 40 6 22 18 58 24 80 10 32 6 38 -20 28 -21 -8
-32 -2 -32 20 0 22 18 32 60 32 33 0 60 -6 60 -14z m480 0 c0 -38 -68 -186
-85 -186 -18 0 -11 56 17 128 9 24 4 29 -20 20 -21 -8 -32 -1 -32 20 0 22 18
32 60 32 33 0 60 -6 60 -14z m-726 -120 c-32 -33 -34 -32 -34 2 0 32 -12 36
-82 26 -46 -6 -75 -3 -65 6 23 23 172 34 196 15 12 -9 6 -29 -15 -49z m578 38
c-44 -6 -52 -12 -30 -25 23 -15 22 -18 -6 -19 -18 0 -39 9 -46 20 -7 11 -68
22 -136 23 l-124 4 130 11 c141 13 326 0 212 -14z m423 4 c-15 -15 -236 -14
-251 1 -6 6 51 11 126 11 75 0 131 -5 125 -12z"/>
<path d="M4140 280 c0 -33 9 -60 20 -60 11 0 20 27 20 60 0 33 -9 60 -20 60
-11 0 -20 -27 -20 -60z"/>
<path d="M2811 867 c-22 -60 18 -67 165 -32 184 45 183 65 -4 65 -119 0 -150
-6 -161 -33z"/>
<path d="M3696 866 c-48 -8 -96 -73 -71 -98 5 -5 67 9 137 31 71 22 164 48
208 58 86 20 -150 28 -274 9z"/>
<path d="M1858 781 c-35 -44 -71 -75 -81 -69 -9 5 -11 -4 -5 -21 16 -40 16
-40 79 18 29 27 79 61 111 75 81 36 91 76 18 76 -44 0 -74 -20 -122 -79z"/>
<path d="M485 765 c41 -4 109 -4 150 0 41 5 8 8 -75 8 -82 0 -116 -3 -75 -8z"/>
</g>
</svg>
